# xmcd CD database file
#
# Track frame offsets:
#	150
#	32598
#	53488
#	80450
#	122400
#	171885
#	202925
#
# Disc length: 3098 seconds
#
# Revision: 0
# Processed by: cddbd v1.4PL0 Copyright (c) Steve Scherf et al.
# Submitted via: CDex 1.50Beta7
#
DISCID=4a0c1807
DTITLE=Herbie Hancock - CD2
DYEAR=1900
DGENRE=Jazz
TTITLE0=Watermelon Man
TTITLE1=Riot
TTITLE2=Jack Rabbit
TTITLE3=Dolphin Dance
TTITLE4=I have a Dream
TTITLE5=He who lives in Fear
TTITLE6=And what if I don't
EXTD=
EXTT0=
EXTT1=
EXTT2=
EXTT3=
EXTT4=
EXTT5=
EXTT6=
PLAYORDER=
